<svg width="80" height="80" viewBox="0 0 80 80" fill="none" xmlns="http://www.w3.org/2000/svg"><path fill="#68B738" d="M0 0h80v80H0z"/><g clip-path="url(#a)" fill="#fff"><path d="M45.7762 42.4731c-1.706 0-3.0885 1.4784-3.0885 3.3011 0 1.8241 1.3829 3.3019 3.0885 3.3019 1.7055 0 3.088-1.4783 3.088-3.3019 0-1.8232-1.3829-3.3011-3.088-3.3011Zm0 5.0133c-.8841 0-1.6009-.7663-1.6009-1.7113 0-.946.7168-1.7118 1.6009-1.7118.884 0 1.6013.7658 1.6013 1.7118 0 .945-.7173 1.7113-1.6013 1.7113ZM36.6068 23.9899c-1.7604 0-3.1873 1.5248-3.1873 3.4071 0 1.8822 1.4264 3.4066 3.1873 3.4066 1.7608 0 3.1873-1.5239 3.1873-3.4066-.0005-1.8828-1.4269-3.4071-3.1873-3.4071Zm-.0005 5.4758c-1.0689 0-1.9353-.9261-1.9353-2.0692 0-1.1427.8664-2.0693 1.9353-2.0693 1.0694 0 1.9358.9266 1.9358 2.0693 0 1.1431-.8664 2.0692-1.9358 2.0692ZM33.2269 41.6105c-1.2937 0-2.3413 1.1198-2.3413 2.5027 0 1.3824 1.0476 2.5028 2.3413 2.5028 1.2937 0 2.3413-1.1204 2.3413-2.5028s-1.0476-2.5027-2.3413-2.5027ZM33 43.5c-.459 0 1.1582 1.1039 1.1582.6132 0-.4897-1.6172.3868-1.1582.3868.4586 0 1.057-.8774 1.057-.3877 0 .4906-.5984-.6123-1.057-.6123ZM43.5002 33.7627s3.04-.8385 6.1779 1.4938c.9072.7599 1.7654 1.3364 1.1523 2.1225-.3435.3405-.6371.6568-1.716-.5241-1.0539-.76-2.7196-1.8983-5.6142-1.4415-1.1278.2364-1.9616.5507-3.5557 2.1492-1.5936 1.5984-3.9721 2.7251-6.4973 2.4892-2.5253-.2354-3.8489-1.2579-5.2463-2.542-.2941-.4195-.2941-.8651-.1228-1.1272.1713-.262.8333-.5241 1.2012-.1312.368.3933 2.1084 1.9656 3.8244 2.0702 1.7164.1046 3.4329.2097 5.737-1.9656 2.306-2.1739 3.4583-2.3313 4.6595-2.5933Z"/><mask id="b"><path d="M53.6456 50.8156V32.1574c0-.5783-.3738-.65-.5238-.6553h-.5057c-.4934 0-.5365.5565-.5378.7386v.0606c.0013 3.6086.0091 18.2532-.0018 18.5399-.0123.328-.0734 1.1664-.8211 1.8872-.8084.695-1.6176.603-1.6176.603s-20.1772 0-20.6553-.0266c-.3797-.0654-1.0417-.2098-1.6059-1.009-.5637-.7992-.4531-1.8474-.4531-1.8474V32.3149c0-.8385-.6742-.8123-.6742-.8123h-.3073c-.536 0-.5854.588-.5881.7764v18.537c0 1.3369.4536 2.3977 1.5479 3.3369 1.0938.9387 2.3748.8564 2.3748.8564s19.7236 0 20.5818-.0024c.8582-.0025 1.9856-.4166 2.9159-1.5554.9293-1.1387.8713-2.6359.8713-2.6359Z"/></mask><path d="M53.6456 50.8156V32.1574c0-.5783-.3738-.65-.5238-.6553h-.5057c-.4934 0-.5365.5565-.5378.7386v.0606c.0013 3.6086.0091 18.2532-.0018 18.5399-.0123.328-.0734 1.1664-.8211 1.8872-.8084.695-1.6176.603-1.6176.603s-20.1772 0-20.6553-.0266c-.3797-.0654-1.0417-.2098-1.6059-1.009-.5637-.7992-.4531-1.8474-.4531-1.8474V32.3149c0-.8385-.6742-.8123-.6742-.8123h-.3073c-.536 0-.5854.588-.5881.7764v18.537c0 1.3369.4536 2.3977 1.5479 3.3369 1.0938.9387 2.3748.8564 2.3748.8564s19.7236 0 20.5818-.0024c.8582-.0025 1.9856-.4166 2.9159-1.5554.9293-1.1387.8713-2.6359.8713-2.6359Z"/><path d="M53.6456 50.8156h-20v.3872l.015.387 19.985-.7742Zm-.5238-19.3135.7101-19.9874-.3549-.0126h-.3552v20Zm-1.0435.7386-19.9995-.1492-.0005.0746v.0746h20Zm0 .0606h-20v.0075l20-.0075Zm-.0018 18.5399-19.9857-.7579-.0004.0123 19.9861.7456Zm-.8211 1.8872 13.0395 15.1648.4315-.371.4097-.395-13.8807-14.3988Zm-1.6176.603 2.2598-19.8719-1.1263-.1281h-1.1335v20Zm-20.6553-.0266-3.3942 19.7098 1.1332.1952 1.1482.064 1.1128-19.969Zm-1.6059-1.009L11.0328 63.8231l.0043.0062 16.3395-11.5335Zm-.4531-1.8474 19.8897 2.098.1103-1.0461v-1.0519h-20Zm-.6742-18.9458v20h.3877l.3875-.0151-.7752-19.9849Zm-.8954.7764-19.99794-.2885-.00208.1442v.1443H25.3539Zm1.5479 21.8739L13.8761 69.3296l.0007.0006 13.025-15.1773Zm2.3748.8564v-20h-.6422l-.6408.0412 1.283 19.9588Zm23.4977-1.5578 15.4888 12.653.006-.0074-15.4948-12.6456Zm20.8713-2.6359V32.1574h-40v18.6582h40Zm0-18.6582c0-4.9701-1.8583-11.4194-7.6176-16.0842-4.8897-3.9604-10.0293-4.4815-12.1961-4.5585l-1.4201 39.9748c-2.0169-.0717-6.8945-.5543-11.5598-4.333-5.5349-4.483-7.2064-10.6073-7.2064-14.9991h40ZM53.1218 11.5021h-.5057v40h.5057v-40Zm-.5057 0c-4.1562 0-8.5236 1.2668-12.283 4.083-3.511 2.6302-5.4171 5.7995-6.4191 8.0335-1.7975 4.0079-1.8283 7.5579-1.8352 8.4729l39.9989.2985c-.0054.7329-.0141 3.9136-1.6664 7.5976-.9293 2.0721-2.7321 5.0909-6.0962 7.611-3.6125 2.7062-7.7895 3.9035-11.699 3.9035v-40ZM32.0783 32.2407V32.2916h40V32.2407h-40Zm0 .0509V32.3013h40V32.2916h-40Zm0 .0172c.0007 1.808.0029 6.3663.0037 10.5117.0003 2.073.0003 4.0374-.0005 5.4997-.0003.7324-.0009 1.3311-.0017 1.752-.0015.7883-.0056.4505.011.0111l39.9713 1.5159c.0194-.5111.0174-1.3693.0176-1.4509.0009-.4489.0014-1.0695.0018-1.8068.0008-1.477.0008-3.453.0005-5.5281-.0008-4.1507-.003-8.719-.0037-10.5196l-40 .015Zm.0121 17.7868c.0503-1.3487.3838-7.0419 5.2843-11.7661l27.7614 28.7977c6.3959-6.1657 6.8517-13.5358 6.9265-15.5403l-39.9722-1.4913Zm6.1256-12.5321c2.5391-2.1833 5.3548-3.3276 7.8066-3.8438 1.1922-.2511 2.2904-.3542 3.2499-.3784.4833-.0122.9437-.0047 1.3781.0166.2177.0106.4304.0248.6379.0418.1037.0086.2064.0179.3079.0278.0507.005.1012.0102.1514.0155.0251.0027.0501.0054.0751.0081.0125.0014.0249.0028.0374.0042.0062.0007.0155.0017.0187.0021.0093.001.0186.0021-2.2412 19.874-2.2599 19.8719-2.2506 19.873-2.2412 19.874.0031.0004.0125.0014.0187.0021.0125.0014.025.0028.0376.0042.0252.0028.0505.0055.076.0082.051.0054.1027.0107.155.0158.1045.0103.2118.02.3217.0291.2197.0181.4506.0335.692.0453.4818.0236 1.0117.0329 1.5836.0185 1.1365-.0287 2.4875-.1523 3.9831-.4672 3.0585-.644 6.683-2.0898 10.0306-4.9682L38.216 37.5635Zm11.4218 15.7679c0-20-.0001-20-.0002-20h-.8659c-.5519-.0001-1.3411-.0002-2.2897-.0004-1.8975-.0004-4.4314-.0013-6.9796-.0029-2.5499-.0017-5.1067-.0042-7.0526-.0079-.9751-.0019-1.7837-.004-2.3572-.0065-1.071-.0045-.6131-.0123.0027.022l-2.2256 39.9381c.9708.0541 7.1699.0514 11.6067.0543 2.5559.0016 5.0961.0025 6.9968.0029.9505.0002 1.7414.0003 2.2948.0004h.8695c.0002 0 .0003 0 .0003-20ZM32.3767 33.5949c.4324.0744 2.5261.4268 4.9378 1.6533 2.5656 1.3047 4.7743 3.2087 6.4016 5.5141l-32.679 23.067c4.9947 7.0759 11.8772 8.7249 14.5512 9.1853l6.7884-39.4197Zm11.3438 7.1736c2.3488 3.3303 2.9087 6.5087 3.0797 7.9542.101.8542.1211 1.5949.1129 2.1832-.0043.3032-.0165.5899-.0336.8586-.0086.1351-.0185.2676-.0296.3974-.0056.0649-.0114.1294-.0175.1934-.0031.0321-.0062.064-.0094.0958-.0016.0159-.0032.0318-.0049.0477-.0008.0079-.0016.0159-.0024.0238-.0005.004-.0011.0099-.0013.0119-.0006.0059-.0012.0119-19.8909-2.0861-19.88965-2.098-19.89028-2.092-19.89091-2.086-.00021.0019-.00083.0079-.00125.0119-.00083.008-.00166.016-.00249.0241-.00166.0161-.00332.0324-.00497.0488-.00331.0329-.00659.0663-.00985.1003-.0065.0681-.0129.1385-.01912.2114-.01243.1455-.02421.3013-.03472.4666-.02094.3292-.03735.704-.04317 1.1179-.01139.8098.01629 1.8625.16017 3.0787.25665 2.1694 1.04308 6.2715 3.95561 10.401l32.6877-23.0546Zm3.203 9.6799V32.3149H6.92351v18.1335H46.9235Zm0-18.1335c0-6.8903-3.4119-14.0041-10.2643-17.9989-2.709-1.5793-5.2465-2.2341-6.9822-2.5265-.9053-.1525-1.7164-.2273-2.3994-.2614-.3454-.0173-.6689-.0248-.9676-.0256-.1498-.0004-.2943.0009-.4335.0035-.0696.0013-.1379.003-.205.0049-.0335.001-.0668.002-.0997.0031-.0164.0006-.0328.0012-.0491.0018-.0082.0003-.0204.0007-.0244.0009-.0122.0004-.0243.0009.751 19.9859.7752 19.9849.7631 19.9854.751 19.9859-.0041.0001-.0163.0006-.0244.0009-.0163.0005-.0326.0011-.049.0017-.0327.0011-.0657.0021-.0989.0031-.0664.0019-.1338.0035-.2022.0048-.1365.0026-.2773.0038-.4221.0034-.2889-.0008-.5979-.008-.9248-.0243-.6461-.0323-1.4046-.1026-2.2467-.2444-1.6092-.2711-3.9782-.8801-6.5186-2.3611-2.6961-1.5718-5.3651-4.0124-7.2383-7.4338-1.83512-3.3519-2.35179-6.6277-2.35179-9.1239H46.9235ZM26.2493 11.5026h-.3073v40h.3073v-40Zm-.3073 0c-4.0375 0-8.3201 1.1918-12.0613 3.9057-3.5223 2.5551-5.491 5.6739-6.55239 7.9455-1.89862 4.0635-1.95869 7.6901-1.97235 8.6367l39.99584.5771c-.0109.7581-.045 3.9965-1.7842 7.7188-.9817 2.1011-2.8374 5.0611-6.1996 7.5001-3.581 2.5977-7.6565 3.7161-11.426 3.7161v-40ZM5.35388 32.279V50.816H45.3539V32.279H5.35388Zm0 18.537c0 7.0631 2.91977 13.7052 8.52222 18.5136l26.0514-30.3534c1.2945 1.1111 2.8548 2.871 3.9933 5.3727 1.1362 2.4964 1.4331 4.81 1.4331 6.4671H5.35388Zm8.52292 18.5142c3.7369 3.2069 7.6858 4.5776 10.4799 5.1692 1.4208.3008 2.6793.4312 3.691.4825.5124.0259.9805.0325 1.3967.0278.2088-.0023.4064-.0075.592-.0147.0929-.0036.1829-.0077.2701-.0122.0436-.0023.0865-.0047.1287-.0071.021-.0012.042-.0025.0627-.0037.0104-.0007.0207-.0013.031-.002.0051-.0003.0128-.0008.0154-.0009.0076-.0005.0153-.001-1.2677-19.9598-1.283-19.9588-1.2754-19.9593-1.2677-19.9598.0025-.0002.0102-.0007.0153-.001.0102-.0006.0204-.0012.0306-.0019.0204-.0012.0409-.0024.0613-.0036.041-.0024.082-.0047.1232-.0068.0822-.0042.1649-.008.2482-.0112.1663-.0065.3353-.0108.5069-.0128.3419-.0038.7013.0019 1.0765.0209.7374.0373 1.6073.1297 2.5711.3338 1.8802.398 4.6417 1.3405 7.2847 3.6087L13.8768 69.3302Zm15.3998-14.3209c0 20 .0001 20 .0002 20h.8491c.5411 0 1.315 0 2.2463-.0001 1.8627 0 4.3552-.0001 6.8747-.0002 5.0072-.0003 10.2022-.0009 10.668-.0022l-.1129-39.9999h-.0023c-.0015 0-.0036.0001-.0063.0001h-.0215c-.0181 0-.0416.0001-.0708.0001-.0583.0001-.1348.0001-.2291.0002-.1885.0001-.4419.0002-.7518.0004-.6194.0002-1.4587.0004-2.4432.0006-1.9686.0003-4.5136.0005-7.0325.0007-2.5188.0001-5.0107.0002-6.8731.0002-.9312.0001-1.7049.0001-2.2458.0001H29.2768c-.0001 0-.0002 0-.0002 20Zm20.6383 19.9975c7.1039-.0201 13.8006-3.3355 18.3482-8.9023L37.2855 40.7986c2.687-3.2893 7.129-5.7765 12.5165-5.7917l.1129 39.9999Zm18.3542-8.9097c3.2454-3.9767 4.4342-8.0956 4.913-10.5289.2584-1.3127.3739-2.4609.4252-3.3541.0261-.4548.0368-.866.0387-1.2258.001-.1805-.0003-.35-.003-.5076-.0014-.0789-.0032-.155-.0053-.2282-.001-.0366-.0021-.0725-.0033-.1077-.0006-.0176-.0012-.035-.0018-.0522-.0003-.0086-.0007-.0172-.001-.0258-.0001-.0042-.0004-.0106-.0005-.0127-.0002-.0064-.0004-.0127-19.9855.7615-19.985.7742-19.9852.7678-19.9854.7615-.0001-.0021-.0004-.0085-.0005-.0127-.0003-.0084-.0007-.0169-.001-.0253-.0006-.0169-.0012-.0338-.0017-.0506-.0012-.0338-.0022-.0675-.0032-.1013-.0019-.0674-.0034-.135-.0046-.2026-.0024-.1351-.0033-.2713-.0026-.4087.0015-.2734.0095-.5588.0265-.8554.0331-.5769.1051-1.2796.2617-2.0757.2755-1.4 1.0286-4.2009 3.3446-7.0388l30.9897 25.2911Z" mask="url(#b)"/></g><defs><clipPath id="a"><path fill="#fff" transform="translate(25 24)" d="M0 0h29v31H0z"/></clipPath></defs></svg>