<svg width="61" height="60" viewBox="0 0 61 60" fill="none" xmlns="http://www.w3.org/2000/svg"><path fill="#68B738" d="M.5 0h60v60H.5z"/><g clip-path="url(#a)" fill="#fff"><path d="M36.2762 31.4731c-1.706 0-3.0885 1.4784-3.0885 3.3011 0 1.8241 1.383 3.3019 3.0885 3.3019 1.7056 0 3.0881-1.4783 3.0881-3.3019 0-1.8232-1.383-3.3011-3.0881-3.3011Zm0 5.0133c-.884 0-1.6009-.7663-1.6009-1.7113 0-.946.7169-1.7118 1.6009-1.7118.8841 0 1.6014.7658 1.6014 1.7118 0 .945-.7173 1.7113-1.6014 1.7113ZM27.1068 12.9899c-1.7604 0-3.1873 1.5248-3.1873 3.4071 0 1.8822 1.4265 3.4066 3.1873 3.4066s3.1873-1.5239 3.1873-3.4066c-.0005-1.8828-1.4269-3.4071-3.1873-3.4071Zm-.0005 5.4758c-1.0689 0-1.9353-.9261-1.9353-2.0692 0-1.1427.8664-2.0693 1.9353-2.0693 1.0694 0 1.9358.9266 1.9358 2.0693 0 1.1431-.8664 2.0692-1.9358 2.0692ZM23.7269 30.6105c-1.2936 0-2.3413 1.1198-2.3413 2.5027 0 1.3824 1.0477 2.5028 2.3413 2.5028 1.2937 0 2.3413-1.1204 2.3413-2.5028s-1.0476-2.5027-2.3413-2.5027ZM23.5 32.5c-.459 0 1.1582 1.1039 1.1582.6132 0-.4897-1.6172.3868-1.1582.3868.4586 0 1.0571-.8774 1.0571-.3877 0 .4906-.5985-.6123-1.0571-.6123ZM34.0002 22.7627s3.04-.8385 6.1779 1.4938c.9071.7599 1.7654 1.3364 1.1523 2.1225-.3435.3405-.6371.6568-1.716-.5241-1.054-.76-2.7197-1.8983-5.6142-1.4415-1.1278.2364-1.9616.5507-3.5557 2.1492-1.5936 1.5984-3.9721 2.7251-6.4973 2.4892-2.5253-.2354-3.8489-1.2579-5.2463-2.542-.2941-.4195-.2941-.8651-.1228-1.1272.1713-.262.8333-.5241 1.2012-.1312.3679.3933 2.1084 1.9656 3.8244 2.0702 1.7164.1046 3.4329.2097 5.737-1.9656 2.306-2.1739 3.4583-2.3313 4.6595-2.5933Z"/><mask id="b"><path d="M44.1457 39.8156V21.1574c0-.5783-.3739-.65-.5239-.6553h-.5056c-.4935 0-.5365.5565-.5379.7386v.0606c.0014 3.6086.0091 18.2532-.0018 18.5399-.0123.328-.0734 1.1664-.8211 1.8872-.8084.695-1.6176.603-1.6176.603s-20.1772 0-20.6553-.0266c-.3797-.0654-1.0417-.2098-1.6059-1.009-.5637-.7992-.4531-1.8474-.4531-1.8474V21.3149c0-.8385-.6742-.8123-.6742-.8123h-.3073c-.536 0-.5854.588-.5881.7764v18.537c0 1.3369.4536 2.3977 1.5479 3.3369 1.0938.9387 2.3748.8564 2.3748.8564s19.7236 0 20.5818-.0024c.8583-.0025 1.9856-.4166 2.9159-1.5554.9294-1.1387.8714-2.6359.8714-2.6359Z"/></mask><path d="M44.1457 39.8156V21.1574c0-.5783-.3739-.65-.5239-.6553h-.5056c-.4935 0-.5365.5565-.5379.7386v.0606c.0014 3.6086.0091 18.2532-.0018 18.5399-.0123.328-.0734 1.1664-.8211 1.8872-.8084.695-1.6176.603-1.6176.603s-20.1772 0-20.6553-.0266c-.3797-.0654-1.0417-.2098-1.6059-1.009-.5637-.7992-.4531-1.8474-.4531-1.8474V21.3149c0-.8385-.6742-.8123-.6742-.8123h-.3073c-.536 0-.5854.588-.5881.7764v18.537c0 1.3369.4536 2.3977 1.5479 3.3369 1.0938.9387 2.3748.8564 2.3748.8564s19.7236 0 20.5818-.0024c.8583-.0025 1.9856-.4166 2.9159-1.5554.9294-1.1387.8714-2.6359.8714-2.6359Z"/><path d="M44.1457 39.8156h-20v.3872l.0149.387 19.9851-.7742Zm-.5239-19.3135L44.3319.514683 43.977.502075h-.3552V20.5021Zm-1.0435.7386-19.9995-.1492-.0005.0746v.0746h20Zm0 .0606h-20v.0075l20-.0075Zm-.0018 18.5399-19.9857-.7579-.0004.0123 19.9861.7456Zm-.8211 1.8872 13.0395 15.1648.4315-.371.4097-.395-13.8807-14.3988Zm-1.6176.603 2.2598-19.8719-1.1263-.1281h-1.1335v20Zm-20.6553-.0266-3.3942 19.7098 1.1332.1952 1.1482.064 1.1128-19.969Zm-1.6059-1.009L1.53278 52.8231l.00437.0062L17.8766 41.2958Zm-.4531-1.8474 19.8897 2.098.1103-1.0461v-1.0519h-20Zm-.6742-18.9458v20h.3877l.3875-.0151-.7752-19.9849Zm-.8954.7764-19.99793-.2885-.00208.1442v.1443H15.8539Zm1.5479 21.8739L4.37607 58.3296l.00076.0006L17.4018 43.1529Zm2.3748.8564v-20h-.6422l-.6408.0412 1.283 19.9588Zm23.4977-1.5578 15.4888 12.653.006-.0074-15.4948-12.6456Zm20.8714-2.6359V21.1574h-40v18.6582h40Zm0-18.6582c0-4.9701-1.8584-11.41942-7.6177-16.08415C51.6383 1.11279 46.4987.59166 44.3319.514683L42.9118 40.4895c-2.0168-.0717-6.8945-.5543-11.5598-4.333-5.5349-4.483-7.2063-10.6073-7.2063-14.9991h40ZM43.6218.502075h-.5056V40.5021h.5056V.502075Zm-.5056 0c-4.1563 0-8.5237 1.266805-12.2831 4.083055-3.511 2.63017-5.4171 5.79947-6.4191 8.03347-1.7975 4.0079-1.8283 7.5579-1.8352 8.4729l39.9989.2985c-.0054.7329-.014 3.9136-1.6664 7.5976-.9293 2.0721-2.7321 5.0909-6.0962 7.611-3.6125 2.7062-7.7895 3.9035-11.6989 3.9035V.502075ZM22.5783 21.2407V21.2916h40V21.2407h-40Zm0 .0509V21.3013h40V21.2916h-40Zm0 .0172c.0007 1.808.0029 6.3663.0037 10.5117.0003 2.073.0003 4.0374-.0005 5.4997-.0003.7324-.0009 1.3311-.0017 1.752-.0015.7883-.0056.4505.011.0111l39.9713 1.5159c.0194-.5111.0174-1.3693.0176-1.4509.0009-.4489.0014-1.0695.0018-1.8068.0008-1.477.0008-3.453.0005-5.5281-.0008-4.1507-.003-8.719-.0037-10.5196l-40 .015Zm.0121 17.7868c.0503-1.3487.3838-7.0419 5.2843-11.7661l27.7614 28.7977c6.3959-6.1657 6.8517-13.5358 6.9265-15.5403l-39.9722-1.4913Zm6.1256-12.5321c2.5391-2.1833 5.3548-3.3276 7.8066-3.8438 1.1922-.2511 2.2904-.3542 3.2499-.3784.4833-.0122.9437-.0047 1.3781.0166.2177.0106.4304.0248.6379.0418.1038.0086.2064.0179.3079.0278.0507.005.1012.0102.1514.0155.0251.0027.0501.0054.0751.0081.0125.0014.0249.0028.0374.0042.0062.0007.0156.0017.0187.0021.0093.001.0186.0021-2.2412 19.874-2.2599 19.8719-2.2506 19.873-2.2412 19.874.0031.0004.0125.0014.0187.0021.0125.0014.025.0028.0376.0042.0252.0028.0505.0055.076.0082.051.0054.1027.0107.155.0158.1045.0103.2118.02.3217.0291.2197.0181.4506.0335.692.0453.4818.0236 1.0117.0329 1.5836.0185 1.1365-.0287 2.4875-.1523 3.9831-.4672 3.0585-.644 6.683-2.0898 10.0306-4.9682L28.716 26.5635Zm11.4218 15.7679c0-20-.0001-20-.0002-20h-.8659c-.5519-.0001-1.3411-.0002-2.2897-.0004-1.8975-.0004-4.4314-.0013-6.9795-.0029-2.55-.0017-5.1068-.0042-7.0527-.0079-.9751-.0019-1.7837-.004-2.3572-.0065-1.071-.0045-.6131-.0123.0027.022l-2.2256 39.9381c.9709.0541 7.1699.0514 11.6067.0543 2.5559.0016 5.0961.0025 6.9968.0029.9505.0002 1.7414.0003 2.2948.0004h.8695c.0002 0 .0003 0 .0003-20ZM22.8767 22.5949c.4324.0744 2.5261.4268 4.9378 1.6533 2.5656 1.3047 4.7743 3.2087 6.4016 5.5141L1.53715 52.8293c4.99464 7.0759 11.87715 8.7249 14.55115 9.1853l6.7884-39.4197Zm11.3438 7.1736c2.3488 3.3303 2.9087 6.5087 3.0797 7.9542.101.8542.1211 1.5949.1129 2.1832-.0043.3032-.0165.5899-.0336.8586-.0086.1351-.0185.2676-.0296.3974-.0055.0649-.0114.1294-.0175.1934-.0031.0321-.0062.064-.0094.0958-.0016.0159-.0032.0318-.0049.0477-.0008.0079-.0016.0159-.0024.0238-.0004.004-.0011.0099-.0013.0119-.0006.0059-.0012.0119-19.8909-2.0861-19.88965-2.098-19.89028-2.092-19.8909-2.086-.00021.0019-.00084.0079-.00125.0119-.00083.008-.00167.016-.0025.0241-.00166.0161-.00332.0324-.00497.0488-.0033.0329-.00659.0663-.00984.1003-.00651.0681-.01291.1385-.01912.2114-.01243.1455-.02421.3013-.03473.4666-.02094.3292-.03735.704-.04317 1.1179-.01139.8098.0163 1.8625.16018 3.0787.25665 2.1694 1.04307 6.2715 3.95558 10.401L34.2205 29.7685Zm3.203 9.6799V21.3149H-2.57649v18.1335H37.4235Zm0-18.1335c0-6.8903-3.4119-14.00408-10.2643-17.99889-2.709-1.57928-5.2465-2.23415-6.9821-2.526541-.9054-.152516-1.7165-.227242-2.3995-.261412-.3454-.017279-.6689-.024721-.9676-.025516-.1498-.000397-.2943.000871-.4335.003479-.0696.001304-.1379.002945-.205.004884-.0335.000971-.0668.002016-.0997.003132-.0164.000557-.0328.001133-.0491.001726-.0082.000298-.0204.00075-.0244.000903-.0122.000459-.0243.000926.751 19.985935.7752 19.9849.7631 19.9854.751 19.9859-.0041.0001-.0163.0006-.0244.0009-.0163.0005-.0326.0011-.049.0017-.0327.0011-.0657.0021-.0989.0031-.0664.0019-.1338.0035-.2022.0048-.1365.0026-.2773.0038-.4221.0034-.2889-.0008-.5979-.008-.9248-.0243-.6461-.0323-1.4046-.1026-2.2467-.2444-1.6092-.2711-3.97816-.8801-6.51861-2.3611-2.69613-1.5718-5.36508-4.0124-7.238291-7.4338-1.835119-3.3519-2.351789-6.6277-2.351789-9.1239H37.4235ZM16.7493.50256h-.3073V40.5026h.3073V.50256Zm-.3073 0c-4.0375 0-8.32011 1.19187-12.06128 3.90574-3.522304 2.5551-5.49102 5.6739-6.5524 7.9455-1.89862 4.0635-1.95869 7.6901-1.97235 8.6367l39.99583.5771c-.0109.7581-.0449 3.9965-1.7842 7.7188-.9817 2.1011-2.8374 5.0611-6.1996 7.5001-3.581 2.5977-7.6565 3.7161-11.426 3.7161V.50256ZM-4.14611 21.279V39.816H35.8539V21.279H-4.14611Zm0 18.537c0 7.0631 2.91977 13.7052 8.52218 18.5136L30.4275 27.9762c1.2945 1.1111 2.8548 2.871 3.9934 5.3727 1.1361 2.4964 1.433 4.81 1.433 6.4671H-4.14611Zm8.52294 18.5142c3.73685 3.2069 7.68577 4.5776 10.47987 5.1692 1.4208.3008 2.6793.4312 3.691.4825.5124.0259.9805.0325 1.3967.0278.2088-.0023.4064-.0075.592-.0147.0929-.0036.1829-.0077.2701-.0122.0436-.0023.0865-.0047.1287-.0071.0211-.0012.042-.0025.0627-.0037.0104-.0007.0207-.0013.031-.002.0051-.0003.0128-.0008.0154-.0009.0076-.0005.0153-.001-1.2677-19.9598-1.283-19.9588-1.2754-19.9593-1.2677-19.9598.0025-.0002.0102-.0007.0153-.001.0102-.0006.0204-.0012.0306-.0019.0204-.0012.0409-.0024.0614-.0036.0409-.0024.0819-.0047.1231-.0068.0822-.0042.165-.008.2482-.0112.1663-.0065.3353-.0108.5069-.0128.3419-.0038.7013.0019 1.0765.0209.7374.0373 1.6073.1297 2.5711.3338 1.8802.398 4.6417 1.3405 7.2847 3.6087L4.37683 58.3302ZM19.7766 44.0093c0 20 .0001 20 .0002 20h.8491c.5411 0 1.315 0 2.2463-.0001 1.8627 0 4.3552-.0001 6.8747-.0002 5.0072-.0003 10.2022-.0009 10.668-.0022l-.1129-39.9999h-.0023c-.0015 0-.0036.0001-.0063.0001h-.0215c-.0181 0-.0416.0001-.0707.0001-.0584.0001-.1349.0001-.2292.0002-.1885.0001-.4419.0002-.7518.0004-.6194.0002-1.4587.0004-2.4432.0006-1.9686.0003-4.5136.0005-7.0325.0007-2.5188.0001-5.0107.0002-6.8731.0002-.9312.0001-1.7049.0001-2.2458.0001H19.7768c-.0001 0-.0002 0-.0002 20Zm20.6383 19.9975c7.1039-.0201 13.8006-3.3355 18.3482-8.9023L27.7855 29.7986c2.687-3.2893 7.129-5.7765 12.5165-5.7917l.1129 39.9999Zm18.3542-8.9097c3.2454-3.9767 4.4342-8.0956 4.913-10.5289.2584-1.3127.3739-2.4609.4252-3.3541.0261-.4548.0368-.866.0387-1.2258.001-.1805-.0002-.35-.003-.5076-.0014-.0789-.0032-.155-.0053-.2282-.001-.0366-.0021-.0725-.0033-.1077-.0006-.0176-.0012-.035-.0018-.0522-.0003-.0086-.0006-.0172-.001-.0258-.0001-.0042-.0004-.0106-.0005-.0127-.0002-.0064-.0004-.0127-19.9854.7615-19.9851.7742-19.9853.7678-19.9855.7615-.0001-.0021-.0004-.0085-.0005-.0127-.0003-.0084-.0007-.0169-.001-.0253-.0006-.0169-.0012-.0338-.0017-.0506-.0012-.0338-.0022-.0675-.0032-.1013-.0019-.0674-.0034-.135-.0046-.2026-.0024-.1351-.0033-.2713-.0026-.4087.0015-.2734.0095-.5588.0265-.8554.0331-.5769.1051-1.2796.2617-2.0757.2755-1.4 1.0286-4.2009 3.3446-7.0388l30.9897 25.2911Z" mask="url(#b)"/></g><defs><clipPath id="a"><path fill="#fff" transform="translate(15.5 13)" d="M0 0h29v31H0z"/></clipPath></defs></svg>