<svg width="268" height="200" viewBox="0 0 268 200" fill="none" xmlns="http://www.w3.org/2000/svg"><circle cx="136" cy="100" r="100" fill="#68B738"/><g clip-path="url(#a)"><path d="M246.2 55.5999c2.309-3.6738 5.378-6.8108 9-9.2 2-1.4 3.2-1.4 4.4 1.2 1.6 3.8 3 7.8 1.8 12-.218.7123-.26 1.4672-.12 2.1991.139.7319.455 1.4187.92 2.0009 1.2 1.6 2.2 3.2 3.2 4.6 1.361 1.7275 2.244 3.7826 2.56 5.9591.316 2.1764.054 4.3977-.76 6.4409-.734 1.9836-.873 4.1385-.4 6.2.4 1.98.4 4.02 0 6-.162 1.4828-.762 2.8838-1.724 4.0238-.961 1.14-2.241 1.9673-3.676 2.3762-2.558.4868-4.841 1.9141-6.4 4.0001-.189.307-.454.561-.769.736-.315.175-.67.266-1.031.264-2.4.4-8.4-5.0001-8.4-7.4001v-1.2c.2-7.2-.2-7.8-6.8-10.8-1.381-.4872-2.619-1.3122-3.6-2.4-1.2-1.6-2.8-1.4-4.6-.8-1.8.6-2.8 1.8-2.6 3.8.603 4.8417.804 9.7251.6 14.6001.013.556.15 1.103.4 1.6 6.2 9 8.6 19.6 11.6 29.8 2.4 7.8 6.8 12 14.8 12.6 1.28.102 2.551.303 3.8.6 1.644.264 3.17 1.015 4.383 2.156 1.212 1.141 2.054 2.619 2.417 4.244 1.4 4.2.6 5.2-3.6 5.2h-13c-1.683.085-3.333-.489-4.6-1.6-2.024-1.708-4.323-3.061-6.8-4-2.738-1.011-5.107-2.823-6.8-5.2-2.343-3.273-5.024-6.29-8-9-5.6-5.8-11.6-11.4-16.8-17.4-3.959-4.088-6.242-9.512-6.4-15.2 0-1.8-.4-2.6-2.4-1.8-.599.38-1.291.587-2 .6-5.6 0-8.4 3.4-10.4 8.4-1.8 4.2-4.2 8.2-6.4 12.4-1.247 2.629-1.929 5.491-2 8.4 0 4.8 1.2 6.4 5.6 8 2.8 1 5.4 2 6.8 4.8 1.6 3.2 1.2 4-2.2 4.2h-13.6c-.784.078-1.573-.093-2.254-.488-.682-.395-1.223-.994-1.546-1.712l-3.6-6c-1.061-1.566-1.741-3.358-1.984-5.234-.243-1.875-.043-3.782.584-5.566.866-3.473.934-7.097.2-10.6-.504-2.44-.461-4.961.127-7.382.588-2.421 1.706-4.681 3.273-6.618 1.2-1.4 1.2-2-.8-2.4-8.178-1.737-16.107-4.4921-23.6-8.2001-.053 0-.104-.0211-.141-.0586-.038-.0375-.059-.0884-.059-.1414-6.4-2.4-7.6-2-9.4 4.6C131.8 104.8 130.2 110.4 129 116.2c-1.4 6.4.2 12.4 2.2 18.4.8 2.4 3.2 2.2 5 2.8 4 1.2 7.4 2.8 9 7 1.4 3.2 1.2 3.6-2.2 3.6-3.4 0-6.8-.2-10.4 0-3.038.055-6.003-.933-8.4-2.8-9.6-6.4-12.4-16.2-13.2-26.8-.4-6.6-4-11.8-8.2-16.8-.8-1-1.6-1.4-2.8-.6-4.293 2.367-8.7751 4.374-13.4 6-9.6515 3.408-18.1207 9.517-24.4 17.6-2.3447 2.95-3.8632 6.47-4.4 10.2-.6 3.6.4 5.2 4 6.2s5.4 3 5.8 6.8c.2 1.6-.4 2.4-2 2.4H49.4c-.5302-.038-1.0434-.203-1.4961-.481-.4527-.279-.8314-.663-1.1039-1.119-2.5123-3.111-3.8567-7.002-3.8-11-.1049-6.91.4982-13.813 1.8-20.6.267-2.033 1.0259-3.97 2.2108-5.642 1.185-1.673 2.7603-3.032 4.5892-3.958 11.8-5.6 18-16.2001 23.6-27.2001 1.2-2.2.2-2.6-1.8-2.4-5.5973.777-10.9006 2.981-15.4 6.4-5.8916 4.2977-11.4415 9.0452-16.6 14.2-5.5007 5.5871-12.7946 9.0571-20.6 9.8001C6.20002 109-.599978 100.8.0000219 87.5999c.1341251-4.5008 1.8312981-8.8145 4.7999981-12.2 1.03204-1.338 2.43947-2.338 4.04254-2.8724 1.60304-.5344 3.32904-.5788 4.95744-.1276 3 .8 3.8 2.4 2.6 5.4-.6 1.2-1.4 2.2-2 3.4-.8628 1.2259-1.5369 2.5742-2 4-2.2 6 .8 10.2 7 10.8 6.6.6 12-2.2 17-6.2 6.0239-4.8235 11.4014-10.4027 16-16.6 3.4385-4.5252 7.7682-8.2974 12.7217-11.0838 4.9534-2.7863 10.4255-4.5275 16.0783-5.1162 4.6-.6 8.6-2.6 13-3.8 8.229-2.5088 16.798-3.7233 25.4-3.6 3.984.1659 7.953-.5868 11.6-2.2 9.8-4 20-4 30.2-2 8 1.6 16 3.6 23.8 5.6 4.642.8649 9.415.7286 14-.4 8.777-2.2249 17.756-3.565 26.8-4 5.925-.2883 11.83.8791 17.2 3.4 4 1.8 4 1.8 3 5.6Z" fill="#000"/></g><defs><clipPath id="a"><path fill="#fff" transform="translate(0 44)" d="M0 0h268v112H0z"/></clipPath></defs></svg>