<svg width="58" height="64" viewBox="0 0 58 64" fill="none" xmlns="http://www.w3.org/2000/svg"><path d="M54.657 29.8291H3.39072c-1.79938 0-3.263126-1.4631-3.263126-3.2619v-9.7725c0-1.7987 1.463746-3.2625 3.263126-3.2625H54.6563c1.7988 0 3.2619 1.4638 3.2619 3.2625v9.7731c.0006 1.7982-1.4625 3.2613-3.2612 3.2613ZM3.39072 16.0322c-.41375 0-.76313.3494-.76313.7625v9.7731c0 .42.3425.7619.76313.7619H54.6563c.42 0 .7619-.3419.7619-.7619v-9.7731c0-.4137-.3494-.7625-.7619-.7625H3.39072Z" fill="#fff"/><path d="M47.5074 63.3078h-36.97c-3.46375 0-6.28188-2.8174-6.28188-6.2818V28.5791c0-.69.56-1.25 1.25-1.25s1.25.56 1.25 1.25V57.026c0 2.0856 1.69688 3.7818 3.78188 3.7818h36.97c2.0844 0 3.7806-1.6962 3.7806-3.7818V28.5791c0-.69.56-1.25 1.25-1.25s1.25.56 1.25 1.25V57.026c0 3.4644-2.8175 6.2818-6.2806 6.2818Z" fill="#fff"/><path d="M29.0231 63.3078c-.69 0-1.25-.5593-1.25-1.25V28.5791c0-.69.56-1.25 1.25-1.25s1.25.56 1.25 1.25v33.4781c0 .6913-.5594 1.2506-1.25 1.2506ZM13.4219 16.0278c-3.91255-2.12-5.37255-7.0275-3.2544-10.94063 2.1169-3.91125 7.0237-5.371874 10.9381-3.25562 5.9631 3.23 9.1831 12.24125 9.3169 12.62315l-2.3581.8293c-.03-.085-3.0382-8.48558-8.1482-11.2537-2.7031-1.46125-6.0893-.4525-7.55 2.24687-1.4618 2.70188-.4543 6.08933 2.2475 7.55253l-1.1918 2.1981Z" fill="#fff"/><path d="m44.6218 16.0277-1.19-2.1987c1.3094-.7094 2.2638-1.885 2.6888-3.3106.4244-1.4263.2675-2.93255-.4419-4.24067-.7075-1.30938-1.8825-2.26313-3.3081-2.6875-1.4263-.42438-2.9313-.26813-4.24.44-5.11 2.7675-8.1181 11.16817-8.1481 11.25317l-2.3582-.8294c.1338-.3819 3.3532-9.39315 9.3163-12.62252 1.895-1.026253 4.0781-1.252502 6.1431-.6375 2.0669.61437 3.7688 1.9975 4.7944 3.89312 1.0269 1.895 1.2537 4.07688.6387 6.1438-.6156 2.0662-1.9987 3.7693-3.895 4.7968ZM52.538 46.5688H5.50552c-.69 0-1.25-.56-1.25-1.25s.56-1.25 1.25-1.25H52.538c.69 0 1.25.56 1.25 1.25s-.5593 1.25-1.25 1.25Z" fill="#fff"/></svg>