<svg width="58" height="62" viewBox="0 0 58 62" fill="none" xmlns="http://www.w3.org/2000/svg"><path d="M54.0156 28.7127H4.03096c-1.75439 0-3.181549-1.4176-3.181549-3.1603v-9.4682c0-1.7427 1.427159-3.1609 3.181549-3.1609H54.0149c1.7538 0 3.1804 1.4182 3.1804 3.1609v9.4688c.0006 1.7421-1.426 3.1597-3.1797 3.1597ZM4.03096 15.3455c-.40341 0-.74405.3385-.74405.7387v9.4688c0 .4069.33394.7382.74405.7382H54.0149c.4095 0 .7429-.3313.7429-.7382v-9.4688c0-.4008-.3407-.7387-.7429-.7387H4.03096Z" fill="#fff"/><path d="M47.0447 61.1488H10.999c-3.37718 0-6.12485-2.7297-6.12485-6.0862v-27.561c0-.6685.546-1.2111 1.21875-1.2111s1.21875.5426 1.21875 1.2111v27.561c0 2.0207 1.65445 3.6641 3.68735 3.6641h36.0457c2.0323 0 3.6861-1.6434 3.6861-3.6641v-27.561c0-.6685.546-1.2111 1.2188-1.2111.6727 0 1.2187.5426 1.2187 1.2111v27.561c0 3.3565-2.747 6.0862-6.1236 6.0862Z" fill="#fff"/><path d="M29.0225 61.1488c-.6727 0-1.2187-.5419-1.2187-1.211V27.5016c0-.6685.546-1.2111 1.2187-1.2111.6728 0 1.2188.5426 1.2188 1.2111v32.4356c0 .6697-.5454 1.2116-1.2188 1.2116ZM13.8113 15.3414c-3.81469-2.054-5.23819-6.80868-3.173-10.59995C12.7022.952006 17.4864-.463133 21.303 1.58721c5.814 3.12941 8.9535 11.85999 9.0839 12.22999l-2.2992.8036c-.0292-.0824-2.9621-8.22139-7.9444-10.90331-2.6355-1.41574-5.9371-.43841-7.3612 2.1769-1.4254 2.61774-.4431 5.89971 2.1913 7.31731l-1.1621 2.1297Z" fill="#fff"/><path d="m44.2313 15.3413-1.1603-2.1302c1.2767-.6873 2.2072-1.8263 2.6216-3.2076.4137-1.38179.2608-2.84113-.4309-4.10852-.6898-1.2686-1.8354-2.19265-3.2254-2.60381-1.3906-.41116-2.858-.25977-4.134.4263-4.9822 2.68131-7.9152 10.82033-7.9444 10.90273l-2.2992-.8036c.1304-.37 3.2693-9.1006 9.0834-12.22941C38.5897.592902 40.7182.373698 42.7316.969546c2.0152.595244 3.6745 1.935294 4.6745 3.771884 1.0012 1.83599 1.2224 3.94992.6228 5.95247-.6002 2.0019-1.9488 3.6519-3.7976 4.6474ZM51.9496 44.9314H6.0929c-.67275 0-1.21875-.5425-1.21875-1.211 0-.6686.546-1.2111 1.21875-1.2111h45.8567c.6727 0 1.2187.5425 1.2187 1.2111 0 .6685-.5454 1.211-1.2187 1.211Z" fill="#fff"/></svg>