<svg width="80" height="80" viewBox="0 0 80 80" fill="none" xmlns="http://www.w3.org/2000/svg"><path fill="#68B738" d="M0 0h80v80H0z"/><path fill-rule="evenodd" clip-rule="evenodd" d="M46.6173 25.0761c.3737-.1547.8038-.0692 1.0898.2168.9085.9085 2.0967 2.8777 3.0588 5.9179C51.7373 34.2804 52.5 38.5081 52.5 44c0 .5523-.4477 1-1 1H48v9c0 .5523-.4477 1-1 1s-1-.4477-1-1V26c0-.4044.2436-.7691.6173-.9239ZM48 43h2.4912c-.0859-4.8164-.7861-8.5125-1.6321-11.1858-.2784-.8796-.5706-1.6427-.8591-2.2952V43ZM34 25c.5523 0 1 .4477 1 1v28c0 .5523-.4477 1-1 1s-1-.4477-1-1V26c0-.5523.4477-1 1-1Z" fill="#fff"/><path fill-rule="evenodd" clip-rule="evenodd" d="M29.5 25c.5523 0 1 .4477 1 1v5.5c0 .5569.192 1.3152.7009 1.9166.4791.5662 1.3136 1.0834 2.799 1.0834.5523 0 1 .4477 1 1s-.4477 1-1 1c-2.0144 0-3.4299-.7328-4.3258-1.7916C28.808 33.6848 28.5 32.4431 28.5 31.5V26c0-.5523.4477-1 1-1Z" fill="#fff"/><path fill-rule="evenodd" clip-rule="evenodd" d="M38.5 25c-.5523 0-1 .4477-1 1v5.5c0 .5569-.192 1.3152-.7009 1.9166-.4791.5662-1.3137 1.0834-2.7992 1.0834-.5523 0-.9998.4477-.9998 1s.4475 1 .9998 1c2.0145 0 3.4301-.7328 4.326-1.7916C39.192 33.6848 39.5 32.4431 39.5 31.5V26c0-.5523-.4477-1-1-1Z" fill="#fff"/></svg>