<svg xmlns="http://www.w3.org/2000/svg">
  <symbol id="vkontakte" viewBox="0 0 27 17">
    <path d="M0 2.33876C0 1.48373.515103 1.02268 1.54531.955621l3.96984.025148c.26643 0 .44406.125741.53287.377221.40853 1.25739.8659 2.34295 1.37212 3.25666.50623.9137 1.16787 1.96573 1.98493 3.15606.07104.15089.1865.22633.34636.22633.12433 0 .22202-.05868.29307-.17603l.0799-.27663.0267-4.35059c0-.30178-.0755-.50296-.22649-.60355-.15098-.10059-.43073-.17604-.83926-.22633-.31972-.0503-.47958-.23472-.47958-.55326 0-.06706.00888-.11736.02664-.15089C9.00542.57002 10.0711.0251479 11.8296.0251479L13.3216 0c.675 0 1.2345.15927 1.6785.477811.4441.31854.6661.821499.6661 1.508879v5.70858c.1244.08382.2398.12574.3464.12574.2664 0 .4973-.15089.6927-.45267 1.9539-2.58185 3.0107-4.30868 3.1706-5.18047 0-.01677.0177-.05868.0532-.12574.1244-.25148.3286-.46943.6128-.65385.2842-.18441.5329-.31015.7461-.37721.071-.033535.1509-.050301.2397-.050301h4.1297l.2665.025151c.3552 0 .6305.15927.8259.47781.0711.10059.1199.20956.1466.32692.0266.11736.0444.23471.0532.35207.0089.11736.0134.18442.0134.20119v.17603c-.1244.68738-.4397 1.42086-.9459 2.20044-.5062.77959-1.1501 1.62205-1.9316 2.52737-.7815.90533-1.27 1.5005-1.4654 1.78551-.1598.20118-.2398.3856-.2398.55325 0 .13412.0711.28501.2132.45269l3.8899 4.6272c.2131.2682.3197.5616.3197.8802 0 .3856-.1599.7041-.4796.9556-.3197.2515-.7016.394-1.1456.4275l-.453.0252h-4.0497c-.0178 0-.0533.0041-.1066.0125-.0533.0084-.0888.0126-.1066.0126-.3908 0-.7549-.1593-1.0924-.4778-.1243-.1341-.9591-1.1233-2.5044-2.9675-.0888-.1173-.2132-.2263-.373-.3269-.0711.2683-.1643.6539-.2798 1.1568-.1154.503-.1998.8634-.2531 1.0814l-.0799.4275c-.1776.5868-.5507.9388-1.119 1.0562l-.373.0252h-2.6111c-1.4742 0-2.94406-.6371-4.40944-1.9113-1.46538-1.2742-2.78422-2.9213-3.95652-4.9416C2.23803 8.10182 1.14566 5.75049.133216 3.06805.0444054 2.8501 0 2.607 0 2.33876Zm16.0126 6.51331c-.373 0-.7105-.0964-1.0125-.2892-.3019-.1928-.4529-.45685-.4529-.79216V1.98669c0-.33531-.0888-.57421-.2664-.71672-.1776-.1425-.4885-.21376-.9325-.21376l-1.5187.0503c-.7638 0-1.341.12574-1.7318.37722.7815.35207 1.1723.92209 1.1723 1.71006v4.42603c-.0355.41913-.2132.76701-.5329 1.04364-.3197.27663-.6749.41494-1.0657.41494-.53287 0-.9414-.24309-1.22559-.72929-1.38545-1.9783-2.41566-3.85601-3.09062-5.63313l-.23979-.65385-3.54355-.02515c-.23091 0-.35968.01258-.38633.03772-.02664.02515-.03996.0964-.03996.21376 0 .15089.01776.31016.05329.47781l.5595 1.40829c1.49203 3.63806 3.11282 6.50494 4.8624 8.60054 1.74957 2.0957 3.46805 3.1435 5.15545 3.1435h2.6643c.1066 0 .1865-.0293.2398-.088.0533-.0587.0977-.1718.1332-.3395l.0533-.2515.5063-2.213c.142-.3017.2664-.5029.373-.6035.1953-.1844.4263-.2766.6927-.2766.4263 0 .8614.243 1.3055.7292l2.2647 2.716c.1421.218.2931.3269.4529.3269h4.3961c.5329 0 .7993-.1257.7993-.3772 0-.0838-.0266-.1676-.0799-.2515l-3.8633-4.5517c-.3019-.3521-.4529-.7293-.4529-1.13169 0-.40237.1421-.78797.4263-1.15681.2309-.3353.6794-.89275 1.3455-1.67233.6661-.77959 1.2478-1.50888 1.7451-2.18787.4974-.679.826-1.29512.9858-1.84838l.0799-.32692c-.0177-.03353-.0266-.08802-.0266-.16346s-.0089-.13831-.0266-.18861h-4.183c-.2665.10059-.4796.25148-.6395.45266l-.1598.47781c-.4441 1.15681-1.6075 2.94231-3.4903 5.35651-.373.33531-.8082.50296-1.3055.50296Z"/>
  </symbol>

  <symbol id="youtube" viewBox="0 0 24 19">
    <path d="m15.8509 8.79275-5.2364-3.49091c-.0986-.06493-.2129-.10199-.3308-.10725-.118-.00525-.2351.02149-.33911.07739-.10398.05591-.19091.13889-.25157.24017-.06066.10128-.0928.21709-.09302.33514v6.98181c.00013.119.0327.2357.09421.3376.06151.1019.14963.1851.25488.2406.10331.0558.22001.0822.33731.0764.1173-.0057.2308-.0435.3281-.1091l5.2364-3.49094c.09-.05971.1639-.14076.2149-.23594.0511-.09517.0778-.20151.0778-.30952 0-.10801-.0267-.21435-.0778-.30952-.051-.09517-.1249-.17623-.2149-.23593Zm-4.9418 2.81455V7.06911l3.4036 2.26909-3.4036 2.2691Zm12.48-8.56364c-.0949-.36819-.276-.70855-.5282-.99305-.2523-.2845-.5685-.505-.9227-.64332C18.2182-.0217993 12.2509.00001916 12 .00001916c-.2509 0-6.21818-.02181846-9.93818 1.40727084-.35418.13832-.67042.35882-.92268.64332-.252251.2845-.433302.62486-.528231.99305C.327273 4.11275 0 6.07638 0 9.3382c0 3.2618.327273 5.2255.610909 6.2945.094929.3682.27598.7086.528231.9931.25226.2845.5685.505.92268.6433 3.72 1.4291 9.68728 1.4073 9.93818 1.4073h.0764c.7527 0 6.3163-.0437 9.8618-1.4073.3542-.1383.6704-.3588.9227-.6433.2522-.2845.4333-.6249.5282-.9931C23.6727 14.5637 24 12.6 24 9.3382c0-3.26182-.3273-5.22545-.6109-6.29454ZM22.1236 15.3055c-.0429.1665-.1246.3204-.2383.4493-.1138.129-.2564.2292-.4162.2925-3.4909 1.3418-9.4036 1.32-9.4691 1.32-.0655 0-5.97818.0218-9.46909-1.32-.15984-.0633-.30245-.1635-.4162-.2925-.11375-.1289-.19542-.2828-.23835-.4493-.26181-1.0037-.56727-2.8473-.56727-5.9673 0-3.12.30546-4.96363.56727-5.96727.04293-.16648.1246-.32046.23835-.44937.11375-.12892.25636-.22913.4162-.29245 3.49091-1.34182 9.40359-1.32 9.46909-1.32.0655 0 5.9782-.02182 9.4691 1.32.1598.06332.3024.16353.4162.29245.1137.12891.1954.28289.2383.44937.2619 1.00364.5673 2.84727.5673 5.96727s-.3054 4.9636-.5673 5.9673Z"/>
  </symbol>

  <symbol id="telegram" viewBox="0 0 20 18">
    <path fill-rule="evenodd" clip-rule="evenodd" d="M19.4608.152905c.1785.149311.2647.381993.2264.611576L17.0611 16.5214c-.0367.2197-.1822.4059-.3866.4945-.2045.0886-.4399.0674-.6252-.0562l-7.87848-5.2523c-.15311-.102-.25635-.2637-.28458-.4455-.02824-.1819.02114-.3672.13609-.5109L10.633 7.48773 6.27303 10.3944c-.19603.1306-.44706.1463-.65779.0409L.362931 7.80915c-.235238-.11762-.3775839-.36427-.36173124-.6268C.0170525 6.91983.188044 6.6921.435726 6.60364L18.8188.0382579c.2192-.0782823.4634-.03466325.642.1146471ZM2.32626 7.32275l3.53542 1.76771L13.4231 4.0495c.2694-.17956.6294-.13601.8481.1026.2188.2386.231.60104.0288.85381L9.49502 11.0121l6.43778 4.2918 2.2755-13.65332L2.32626 7.32275Z"/>
  </symbol>

  <symbol id="html-academy" viewBox="0 0 27 34">
    <path d="M13.6426.0157537 13.5 0 0 1.40733V26.0129L13.5 34 27 26.0129V1.40733L13.6426.0157537ZM25.2344 25.0151 13.5 31.9573 1.76561 25.0151V14.9293l11.68509 6.9158.0194 1.2533-8.01659-4.7436-.01056 1.2253 8.04645 4.8084.0194 1.2865-8.04472-4.7576-.01057 1.2253L13.5 26.9511l8.1239-4.8329V16.909l3.6193-2.1495-.0088 10.2556Zm0-11.5632-3.2197 1.88-1.4822.8752-7.0659-4.187-.0106 1.2253 6.0397 3.5726-.0528.0315-.1303.0752-.859.4919-4.987-2.9477-.0106 1.2253 3.9361 2.328-.933.6092-.0211.0122-2.9714-1.7416-.0106 1.2253 1.9469 1.1342-1.9874 1.1868-11.6182-6.8721 11.6376-6.95789 11.7995 6.83359Zm0-1.2253L13.4401 5.31075 1.76561 12.2196V2.9897L13.5 1.76442 25.2344 2.9897v9.2369Z"/>
  </symbol>

  <symbol id="envelope" viewBox="0 0 19 14" fill="none">
    <line x1="1.18955" y1="6" x2="1.18955" y2="14" stroke="#222222" stroke-width="1.3"/>
    <line x1="18.1896" y1="6" x2="18.1896" y2="14" stroke="#222222" stroke-width="1.3"/>
    <line x1="0.539551" y1="13.35" x2="18.5396" y2="13.35" stroke="#222222" stroke-width="1.3"/>
    <line x1="0.539551" y1="1.35" x2="18.5396" y2="1.35" stroke="#222222" stroke-width="1.3"/>
    <path d="M17.8896 3.1821L9.53957 9.67654L1.18955 3.18209V1.65H4.03955L9.53957 1.65H14.5396H17.8896V3.1821Z" stroke="#222222" stroke-width="1.3"/>
  </symbol>

  <symbol id="telephone" viewBox="0 0 20 21" fill="none">
    <g clip-path="url(#clip0_153_253)">
    <path d="M17.9 9.75275H9.39999V10.9569H17.9L15.8 13.0641L16.7 13.9672L19.8 10.8565C19.8974 10.7263 19.95 10.5678 19.95 10.405C19.95 10.2421 19.8974 10.0837 19.8 9.95344L16.7 6.84277L15.8 7.74587L17.9 9.75275Z" fill="black"/>
    <path d="M8.10001 19.7872V13.5659C8.08846 13.41 8.02154 13.2635 7.91142 13.153C7.80131 13.0425 7.65531 12.9754 7.50001 12.9638H3.10001C3.10516 13.2815 3.23325 13.5848 3.45718 13.8095C3.68112 14.0342 3.98336 14.1627 4.30001 14.1679H6.80001V19.1851H3.10001C2.86326 19.2 2.62591 19.1676 2.40176 19.0896C2.17762 19.0117 1.97115 18.8898 1.79436 18.7311C1.61757 18.5723 1.47399 18.3799 1.37196 18.165C1.26992 17.9501 1.21148 17.717 1.20001 17.4793V3.43111C1.19181 2.96681 1.36516 2.51774 1.68292 2.18013C2.00069 1.84252 2.43758 1.64322 2.90001 1.62492H6.80001V6.64212H4.40001C4.08336 6.64729 3.78112 6.77581 3.55718 7.00052C3.33325 7.22523 3.20516 7.52851 3.20001 7.84625H7.60001C7.75531 7.83466 7.90131 7.76751 8.01142 7.65701C8.12154 7.54651 8.18846 7.40002 8.20001 7.24418V0.922517C8.15232 0.76584 8.06117 0.626022 7.93721 0.519407C7.81325 0.412792 7.66161 0.343785 7.50001 0.320453H3.10001C2.70599 0.307054 2.31321 0.371716 1.94411 0.510744C1.57501 0.649771 1.23684 0.860436 0.948933 1.13069C0.661026 1.40095 0.42903 1.7255 0.266207 2.08579C0.103385 2.44608 0.01293 2.83504 1.46306e-05 3.23043V17.1782C-0.0289644 17.5773 0.0246504 17.978 0.157487 18.3552C0.290324 18.7324 0.499509 19.078 0.771886 19.3701C1.04426 19.6623 1.37394 19.8947 1.74019 20.0529C2.10643 20.211 2.50132 20.2913 2.90001 20.2889H7.50001C7.5735 20.304 7.64943 20.3022 7.72216 20.2839C7.7949 20.2655 7.86259 20.2309 7.92021 20.1828C7.97783 20.1346 8.02391 20.074 8.05504 20.0055C8.08616 19.9371 8.10153 19.8624 8.10001 19.7872Z" fill="black"/>
    </g>
    <defs>
    <clipPath id="clip0_153_253">
    <rect width="20" height="20.0688" fill="white" transform="translate(0 0.320435)"/>
    </clipPath>
    </defs>
  </symbol>
</svg>
