<svg width="134" height="100" viewBox="0 0 134 100" fill="none" xmlns="http://www.w3.org/2000/svg"><circle cx="69" cy="50" r="50" fill="#68B738"/><g clip-path="url(#a)"><path d="M123.1 25.8c1.154-1.8369 2.689-3.4054 4.5-4.6 1-.7 1.6-.7 2.2.6.8 1.9 1.5 3.9.9 6-.109.3562-.13.7336-.06 1.0995.07.366.227.7094.46 1.0005.6.8 1.1 1.6 1.6 2.3.68.8638 1.122 1.8913 1.28 2.9795.158 1.0883.027 2.1989-.38 3.2205-.367.9918-.437 2.0692-.2 3.1.2.99.2 2.01 0 3-.081.7414-.381 1.4419-.862 2.0119-.481.57-1.121.9837-1.838 1.1881-1.279.2434-2.421.9569-3.2 2-.095.1536-.227.2803-.385.3679-.157.0876-.335.1331-.515.1321-1.2.2-4.2-2.5-4.2-3.7v-.6c.1-3.6-.1-3.9-3.4-5.4-.691-.2436-1.31-.6561-1.8-1.2-.6-.8-1.4-.7-2.3-.4-.9.3-1.4.9-1.3 1.9.301 2.4209.402 4.8626.3 7.3.007.2782.075.5514.2.8 3.1 4.5 4.3 9.8 5.8 14.9 1.2 3.9 3.4 6 7.4 6.3.64.0511 1.275.1514 1.9.3.822.132 1.585.5076 2.191 1.078.606.5705 1.027 1.3097 1.209 2.122.7 2.1.3 2.6-1.8 2.6h-6.5c-.842.0426-1.667-.2444-2.3-.8-1.012-.8541-2.162-1.5304-3.4-2-1.369-.5053-2.554-1.4113-3.4-2.6-1.171-1.6365-2.512-3.1449-4-4.5-2.8-2.9-5.8-5.7-8.4-8.7-1.979-2.0442-3.1211-4.7557-3.2001-7.6 0-.9-.2-1.3-1.2-.9-.2994.19-.6454.2938-1 .3-2.8 0-4.2 1.7-5.2 4.2-.9 2.1-2.1 4.1-3.2 6.2-.6237 1.3145-.9644 2.7454-1 4.2 0 2.4.6 3.2 2.8 4 1.4.5 2.7 1 3.4 2.4.8 1.6.6 2-1.1 2.1h-6.8c-.392.0388-.7863-.0465-1.1272-.2438-.341-.1974-.6113-.4969-.7728-.8562l-1.8-3c-.5306-.7828-.8703-1.679-.9918-2.6168-.1216-.9378-.0216-1.891.2918-2.7832.4328-1.7365.467-3.5484.1-5.3-.2521-1.2199-.2303-2.4805.0636-3.691.294-1.2104.8529-2.3406 1.6364-3.309.6-.7.6-1-.4-1.2-4.0891-.8686-8.0533-2.246-11.8-4.1-.0265 0-.0519-.0105-.0707-.0293-.0187-.0187-.0293-.0442-.0293-.0707-3.2-1.2-3.8-1-4.7 2.3-.8 2.8-1.6 5.6-2.2 8.5-.7 3.2.1 6.2 1.1 9.2.4 1.2 1.6 1.1 2.5 1.4 2 .6 3.7 1.4 4.5 3.5.7 1.6.6 1.8-1.1 1.8-1.7 0-3.4-.1-5.2 0-1.5189.0275-3.0014-.4666-4.2-1.4-4.8-3.2-6.2-8.1-6.6-13.4-.2-3.3-2-5.9-4.1-8.4-.4-.5-.8-.7-1.4-.3-2.1465 1.1836-4.3875 2.187-6.7 3-4.8257 1.704-9.0604 4.7585-12.2 8.8-1.1723 1.475-1.9316 3.2351-2.2 5.1-.3 1.8.2 2.6 2 3.1s2.7 1.5 2.9 3.4c.1.8-.2 1.2-1 1.2h-8.1c-.2651-.0188-.5217-.1013-.7481-.2406-.2263-.1393-.4156-.3312-.5519-.5594-1.2561-1.5552-1.9283-3.501-1.9-5.5-.0525-3.4551.2491-6.9064.9-10.3.1335-1.0163.5129-1.9847 1.1054-2.8212.5925-.8364 1.3802-1.5157 2.2946-1.9788 5.9-2.8 9-8.1 11.8-13.6.6-1.1.1-1.3-.9-1.2-2.7986.3885-5.4503 1.4905-7.7 3.2-2.9458 2.1488-5.7208 4.5226-8.3 7.1-2.7503 2.7937-6.3973 4.5286-10.3 4.9-7.29998.4-10.699981-3.7-10.3999806-10.3.0670625-2.2504.9156476-4.4072 2.4000006-6.1.51602-.669 1.21973-1.169 2.02127-1.4362.80153-.2672 1.66451-.2894 2.47873-.0638 1.5.4 1.9 1.2 1.3 2.7-.3.6-.7 1.1-1 1.7-.4314.613-.76848 1.2871-1 2-1.1 3 .4 5.1 3.5 5.4 3.29998.3 5.99998-1.1 8.49998-3.1 3.0119-2.4118 5.7007-5.2014 8-8.3 1.7193-2.2626 3.8841-4.1487 6.3608-5.5419 2.4768-1.3931 5.2128-2.2638 8.0392-2.5581 2.3-.3 4.3-1.3 6.5-1.9 4.1145-1.2544 8.399-1.8616 12.7-1.8 1.9921.083 3.9766-.2934 5.8-1.1 4.9-2 10-2 15.1-1 4 .8 8 1.8 11.9 2.8 2.321.4325 4.7075.3643 7-.2 4.3891-1.1125 8.8781-1.7825 13.4001-2 2.962-.1441 5.915.4395 8.6 1.7 2 .9 2 .9 1.5 2.8Z" fill="#000"/></g><defs><clipPath id="a"><path fill="#fff" transform="translate(0 20)" d="M0 0h134v56H0z"/></clipPath></defs></svg>